<svg width="55" height="55" viewBox="0 0 55 55" fill="none" xmlns="http://www.w3.org/2000/svg">
<path d="M27.5 50.4167C24.3681 50.4167 21.408 49.8148 18.6198 48.6109C15.8316 47.4085 13.3971 45.7662 11.3162 43.6838C9.23388 41.603 7.59152 39.1684 6.38916 36.3803C5.18527 33.5921 4.58333 30.632 4.58333 27.5C4.58333 24.3299 5.18527 21.3607 6.38916 18.5923C7.59152 15.8225 9.23388 13.3971 11.3162 11.3163C13.3971 9.23393 15.8316 7.5908 18.6198 6.38692C21.408 5.18455 24.3681 4.58337 27.5 4.58337C30.6701 4.58337 33.6394 5.18455 36.4077 6.38692C39.1776 7.5908 41.6029 9.23393 43.6837 11.3163C45.7661 13.3971 47.4085 15.8225 48.6108 18.5923C49.8147 21.3607 50.4167 24.3299 50.4167 27.5V30.823C50.4167 33.0764 49.6436 34.9953 48.0975 36.5796C46.5499 38.1655 44.6493 38.9584 42.3958 38.9584C41.0208 38.9584 39.7413 38.6528 38.5573 38.0417C37.3733 37.4306 36.3993 36.6285 35.6354 35.6355C34.6042 36.6667 33.3919 37.4787 31.9985 38.0715C30.6037 38.6628 29.1042 38.9584 27.5 38.9584C24.3299 38.9584 21.628 37.8408 19.3944 35.6057C17.1592 33.3721 16.0417 30.6702 16.0417 27.5C16.0417 24.3299 17.1592 21.6273 19.3944 19.3921C21.628 17.1585 24.3299 16.0417 27.5 16.0417C30.6701 16.0417 33.3728 17.1585 35.6079 19.3921C37.8415 21.6273 38.9583 24.3299 38.9583 27.5V30.823C38.9583 31.9306 39.3021 32.7991 39.9896 33.4286C40.6771 34.0596 41.4792 34.375 42.3958 34.375C43.3125 34.375 44.1146 34.0596 44.8021 33.4286C45.4896 32.7991 45.8333 31.9306 45.8333 30.823V27.5C45.8333 22.4966 44.0283 18.1898 40.4181 14.5796C36.8095 10.971 32.5035 9.16671 27.5 9.16671C22.4965 9.16671 18.1897 10.971 14.5796 14.5796C10.971 18.1898 9.16666 22.4966 9.16666 27.5C9.16666 32.5035 10.971 36.8096 14.5796 40.4182C18.1897 44.0283 22.4965 45.8334 27.5 45.8334H38.9583V50.4167H27.5ZM27.5 34.375C29.4097 34.375 31.033 33.7066 32.3698 32.3698C33.7066 31.033 34.375 29.4098 34.375 27.5C34.375 25.5903 33.7066 23.9671 32.3698 22.6302C31.033 21.2934 29.4097 20.625 27.5 20.625C25.5903 20.625 23.967 21.2934 22.6302 22.6302C21.2934 23.9671 20.625 25.5903 20.625 27.5C20.625 29.4098 21.2934 31.033 22.6302 32.3698C23.967 33.7066 25.5903 34.375 27.5 34.375Z" fill="white"/>
</svg>
