<svg width="55" height="55" viewBox="0 0 55 55" fill="none" xmlns="http://www.w3.org/2000/svg">
<path d="M27.5 4.58337C24.4905 4.58337 21.5106 5.17613 18.7302 6.3278C15.9498 7.47947 13.4235 9.1675 11.2955 11.2955C6.99776 15.5932 4.58334 21.4222 4.58334 27.5C4.58334 37.6292 11.1604 46.223 20.2583 49.2709C21.4042 49.4542 21.7708 48.7438 21.7708 48.125V44.2521C15.4229 45.6271 14.0708 41.1813 14.0708 41.1813C13.0167 38.523 11.5271 37.8125 11.5271 37.8125C9.44167 36.3917 11.6875 36.4375 11.6875 36.4375C13.9792 36.598 15.1938 38.798 15.1938 38.798C17.1875 42.2813 20.5563 41.25 21.8625 40.7C22.0688 39.2105 22.6646 38.2021 23.3063 37.6292C18.2188 37.0563 12.8792 35.0855 12.8792 26.3542C12.8792 23.8105 13.75 21.7709 15.2396 20.1438C15.0104 19.5709 14.2083 17.1875 15.4688 14.0938C15.4688 14.0938 17.3938 13.475 21.7708 16.4313C23.5813 15.9271 25.5521 15.675 27.5 15.675C29.4479 15.675 31.4188 15.9271 33.2292 16.4313C37.6063 13.475 39.5313 14.0938 39.5313 14.0938C40.7917 17.1875 39.9896 19.5709 39.7604 20.1438C41.25 21.7709 42.1208 23.8105 42.1208 26.3542C42.1208 35.1084 36.7583 37.0334 31.6479 37.6063C32.4729 38.3167 33.2292 39.7146 33.2292 41.8459V48.125C33.2292 48.7438 33.5958 49.4771 34.7646 49.2709C43.8625 46.2 50.4167 37.6292 50.4167 27.5C50.4167 24.4906 49.8239 21.5106 48.6722 18.7302C47.5206 15.9498 45.8325 13.4235 43.7045 11.2955C41.5765 9.1675 39.0502 7.47947 36.2698 6.3278C33.4895 5.17613 30.5095 4.58337 27.5 4.58337Z" fill="white"/>
</svg>
