<svg width="55" height="55" viewBox="0 0 55 55" fill="none" xmlns="http://www.w3.org/2000/svg">
<path d="M27.5 4.58337C14.85 4.58337 4.58333 14.85 4.58333 27.5C4.58333 40.15 14.85 50.4167 27.5 50.4167C40.15 50.4167 50.4167 40.15 50.4167 27.5C50.4167 14.85 40.15 4.58337 27.5 4.58337ZM38.1333 20.1667C37.7896 23.7875 36.3 32.5875 35.5438 36.6438C35.2229 38.3625 34.5812 38.9355 33.9854 39.0042C32.6562 39.1188 31.6479 38.1334 30.3646 37.2855C28.3479 35.9563 27.2021 35.1313 25.2542 33.848C22.9854 32.3584 24.4521 31.5334 25.7583 30.2042C26.1021 29.8605 31.9688 24.5209 32.0833 24.0396C32.0993 23.9667 32.0971 23.8911 32.0772 23.8192C32.0572 23.7473 32.02 23.6814 31.9688 23.6271C31.8312 23.5125 31.6479 23.5584 31.4875 23.5813C31.2812 23.6271 28.0729 25.7584 21.8167 29.975C20.9 30.5938 20.075 30.9146 19.3417 30.8917C18.5167 30.8688 16.9583 30.4334 15.7896 30.0438C14.3458 29.5855 13.2229 29.3334 13.3146 28.5313C13.3604 28.1188 13.9333 27.7063 15.0104 27.2709C21.7021 24.3605 26.1479 22.4355 28.3708 21.5188C34.7417 18.8605 36.0479 18.4021 36.9188 18.4021C37.1021 18.4021 37.5375 18.448 37.8125 18.6771C38.0417 18.8605 38.1104 19.1125 38.1333 19.2959C38.1104 19.4334 38.1562 19.8459 38.1333 20.1667Z" fill="white"/>
</svg>
